Coordinates
version=1
nRows=23
nColumns=38
inDegrees=no

Units are S.I. units (second, meters, Newtons, ...)
If the header above contains a line with 'inDegrees', this indicates whether rotational values are in degrees (yes) or radians (no).

endheader
time	pelvis_tilt	pelvis_list	pelvis_rotation	pelvis_tx	pelvis_ty	pelvis_tz	hip_flexion_r	hip_adduction_r	hip_rotation_r	knee_angle_r	ankle_angle_r	subtalar_angle_r	mtp_angle_r	hip_flexion_l	hip_adduction_l	hip_rotation_l	knee_angle_l	ankle_angle_l	subtalar_angle_l	mtp_angle_l	lumbar_extension	lumbar_bending	lumbar_rotation	arm_flex_r	arm_add_r	arm_rot_r	elbow_flex_r	pro_sup_r	wrist_flex_r	wrist_dev_r	arm_flex_l	arm_add_l	arm_rot_l	elbow_flex_l	pro_sup_l	wrist_flex_l	wrist_dev_l
0.65	0.401768	1.44661	-1.89966	0.508228	0.769533	1.03659	-0.346328	-0.107037	-0.0665022	0.518599	-0.23124	0	0	0.189167	-0.034464	-0.204237	0.327496	-0.106318	0	0	-0.455842	-0.0688158	0.257082	0.0310311	-0.539117	0.808793	0.774155	0.64592	0	0	0.189385	-0.325964	0.793831	0.541047	0.607077	0	0
0.66	0.413971	1.44484	-1.91452	0.511862	0.75681	1.03597	-0.345784	-0.115494	-0.0651696	0.541478	-0.245642	0	0	0.1849	-0.0313829	-0.203712	0.338488	-0.119904	0	0	-0.451439	-0.0724704	0.260479	0.0242057	-0.534016	0.806583	0.767946	0.647653	0	0	0.184427	-0.327848	0.79585	0.54234	0.608299	0	0
0.67	0.428691	1.44246	-1.93224	0.515552	0.744064	1.03561	-0.343637	-0.124813	-0.0612434	0.566759	-0.263329	0	0	0.179879	-0.0292053	-0.209603	0.35171	-0.132165	0	0	-0.447374	-0.0766325	0.263638	0.0177918	-0.529023	0.804687	0.761801	0.649624	0	0	0.179296	-0.329209	0.796542	0.543271	0.608707	0	0
0.68	0.44812	1.44032	-1.95397	0.519412	0.73127	1.03545	-0.338793	-0.134626	-0.0560415	0.594942	-0.283876	0	0	0.175616	-0.0275146	-0.219682	0.367176	-0.142964	0	0	-0.44263	-0.0807837	0.265721	0.0115507	-0.524021	0.802971	0.755637	0.651614	0	0	0.174189	-0.330436	0.797622	0.543395	0.609242	0	0
0.69	0.473863	1.43946	-1.98036	0.523427	0.718421	1.03543	-0.329844	-0.144303	-0.0518834	0.626418	-0.30877	0	0	0.172787	-0.0261597	-0.228936	0.383738	-0.152009	0	0	-0.436109	-0.0847847	0.266427	0.00550383	-0.51783	0.801266	0.747912	0.653788	0	0	0.169579	-0.331751	0.800143	0.542395	0.61038	0	0
0.7	0.50653	1.43971	-2.01126	0.527615	0.705476	1.03563	-0.317204	-0.15373	-0.0509313	0.660505	-0.338497	0	0	0.171442	-0.024565	-0.234741	0.401342	-0.158432	0	0	-0.428072	-0.0887093	0.265149	-0.000111256	-0.509683	0.799505	0.737693	0.6561	0	0	0.165254	-0.333205	0.802676	0.540965	0.610788	0	0
0.71	0.55007	1.44157	-2.04879	0.532125	0.692256	1.03598	-0.301325	-0.162554	-0.0556814	0.695889	-0.373961	0	0	0.172956	-0.0222011	-0.235817	0.420143	-0.162572	0	0	-0.417742	-0.0922258	0.260085	-0.00492742	-0.498275	0.798463	0.723211	0.659042	0	0	0.160826	-0.335134	0.805057	0.538725	0.610469	0	0
0.72	0.586708	1.4422	-2.08093	0.536495	0.679603	1.03683	-0.282479	-0.17149	-0.0564669	0.735086	-0.415097	0	0	0.173127	-0.0204262	-0.239051	0.438688	-0.165335	0	0	-0.410115	-0.0954669	0.255571	-0.00752088	-0.488725	0.798924	0.710084	0.662196	0	0	0.157517	-0.33652	0.807927	0.53659	0.609355	0	0
0.73	0.611476	1.44108	-2.10314	0.540807	0.667447	1.03819	-0.262098	-0.180493	-0.053281	0.776726	-0.462978	0	0	0.170245	-0.0190893	-0.247039	0.456219	-0.166766	0	0	-0.406067	-0.098249	0.25252	-0.0090273	-0.482295	0.799871	0.700221	0.664767	0	0	0.155591	-0.337167	0.81189	0.535054	0.608106	0	0
0.74	0.624475	1.43847	-2.11392	0.545253	0.655608	1.03995	-0.241757	-0.189039	-0.048966	0.819464	-0.509095	0	0	0.162778	-0.0170655	-0.257421	0.469615	-0.167091	0	0	-0.405405	-0.0999284	0.249702	-0.0106199	-0.479143	0.799957	0.694802	0.665889	0	0	0.154666	-0.336965	0.815938	0.533848	0.606916	0	0
0.75	0.629599	1.43557	-2.11656	0.549851	0.644063	1.04192	-0.220953	-0.196622	-0.0447065	0.862407	-0.554548	0	0	0.15089	-0.0138545	-0.267145	0.476515	-0.166306	0	0	-0.406283	-0.10016	0.246765	-0.0123578	-0.47842	0.799499	0.692499	0.666057	0	0	0.154511	-0.335889	0.82022	0.532439	0.604272	0	0
0.76	0.62778	1.43301	-2.11187	0.554565	0.63284	1.04396	-0.199428	-0.202204	-0.0387698	0.90526	-0.596918	0	0	0.135129	-0.00937341	-0.274888	0.475707	-0.165182	0	0	-0.408002	-0.0988003	0.243687	-0.0141816	-0.480003	0.798832	0.693149	0.666036	0	0	0.155178	-0.334358	0.825377	0.531167	0.60038	0	0
0.77	0.616663	1.43096	-2.09802	0.55929	0.62194	1.04598	-0.176963	-0.205199	-0.0311611	0.948287	-0.631891	0	0	0.117416	-0.00506005	-0.283205	0.471071	-0.163554	0	0	-0.410268	-0.095595	0.240863	-0.0162354	-0.484081	0.797739	0.697216	0.665768	0	0	0.156085	-0.33275	0.830364	0.530802	0.596697	0	0
0.78	0.592343	1.42861	-2.07215	0.563862	0.611498	1.04801	-0.154068	-0.205657	-0.0217283	0.990157	-0.669477	0	0	0.0978018	-0.00200433	-0.293304	0.465188	-0.160565	0	0	-0.414196	-0.0906738	0.239636	-0.018873	-0.491542	0.795609	0.706129	0.664868	0	0	0.158134	-0.331127	0.837268	0.531657	0.591075	0	0
0.79	0.557775	1.42567	-2.03752	0.568166	0.601494	1.05007	-0.13108	-0.203493	-0.00936514	1.03049	-0.698132	0	0	0.0768879	-0.00068758	-0.304234	0.459598	-0.156261	0	0	-0.419922	-0.0847196	0.239923	-0.0215459	-0.501505	0.792681	0.718532	0.663454	0	0	0.161027	-0.329551	0.844933	0.533788	0.584493	0	0
0.8	0.526737	1.42396	-2.00512	0.572378	0.59147	1.05198	-0.107881	-0.198912	0.00229046	1.06865	-0.698132	0	0	0.0579467	-5.29449e-05	-0.310867	0.454231	-0.152648	0	0	-0.423897	-0.078509	0.238619	-0.0230645	-0.509479	0.790952	0.72802	0.662465	0	0	0.163119	-0.328562	0.850534	0.535938	0.57938	0	0
0.81	0.49557	1.422	-1.97154	0.576443	0.581529	1.05403	-0.0863844	-0.19236	0.0121421	1.10187	-0.698132	0	0	0.0389967	1.32359e-06	-0.313882	0.447215	-0.150649	0	0	-0.428543	-0.0723789	0.236335	-0.0236844	-0.516479	0.789622	0.736503	0.661406	0	0	0.165816	-0.328231	0.856629	0.538234	0.573312	0	0
0.82	0.464723	1.41964	-1.93758	0.580329	0.571817	1.05617	-0.0656326	-0.184753	0.0193869	1.13212	-0.688691	0	0	0.0198361	-0.00113928	-0.315826	0.4385	-0.151529	0	0	-0.434054	-0.0663456	0.23353	-0.0235632	-0.523071	0.78813	0.744914	0.659963	0	0	0.169794	-0.32884	0.865679	0.541204	0.563036	0	0
0.83	0.435268	1.41697	-1.90508	0.584064	0.562231	1.0583	-0.0452126	-0.177306	0.025783	1.16275	-0.647336	0	0	0.000766797	-0.00279811	-0.317283	0.429231	-0.154286	0	0	-0.439354	-0.0605657	0.231033	-0.0231698	-0.529021	0.786582	0.75241	0.658153	0	0	0.174879	-0.330199	0.878973	0.544602	0.549132	0	0
0.84	0.408176	1.41477	-1.87491	0.587781	0.552653	1.06031	-0.0243149	-0.170247	0.0306714	1.18989	-0.610487	0	0	-0.0169705	-0.00493967	-0.31989	0.421837	-0.156346	0	0	-0.44363	-0.0546711	0.227751	-0.0218346	-0.53433	0.786351	0.758554	0.6568	0	0	0.178197	-0.330721	0.885878	0.547476	0.541801	0	0
0.85	0.38491	1.41323	-1.8485	0.591468	0.543063	1.06215	-0.00267542	-0.163581	0.0346849	1.21299	-0.57466	0	0	-0.033799	-0.00686558	-0.323786	0.415518	-0.157748	0	0	-0.446669	-0.0489099	0.224257	-0.0204803	-0.53922	0.786274	0.764209	0.654873	0	0	0.181101	-0.331023	0.892265	0.549903	0.534638	0	0
0.86	0.365914	1.41246	-1.82619	0.595117	0.533452	1.06385	0.0195828	-0.157469	0.0372606	1.23056	-0.550266	0	0	-0.0503156	-0.00809375	-0.328388	0.408964	-0.158043	0	0	-0.448401	-0.0437102	0.220517	-0.0186439	-0.542708	0.786685	0.767717	0.654004	0	0	0.18347	-0.330679	0.896304	0.551191	0.531009	0	0
0.87	0.346392	1.41157	-1.80329	0.5987	0.523807	1.06554	0.0405029	-0.15097	0.0399529	1.24363	-0.519667	0	0	-0.0683223	-0.00862748	-0.332156	0.400034	-0.158161	0	0	-0.450273	-0.0384733	0.21675	-0.0166126	-0.545832	0.787351	0.770833	0.653006	0	0	0.185826	-0.329952	0.90015	0.551804	0.52699	0	0
